<svg width="12" height="10" viewBox="0 0 12 10" fill="none" xmlns="http://www.w3.org/2000/svg">
<path d="M11.7546 0H10.3115C9.99763 0 9.69916 0.150773 9.51454 0.409243L4.67746 7.11714L2.48662 4.07705C2.302 3.82165 2.00661 3.6678 1.68967 3.6678H0.246551C0.0465451 3.6678 -0.0703818 3.8955 0.046545 4.05858L3.88051 9.37567C3.97109 9.50208 4.09049 9.60509 4.22881 9.67615C4.36714 9.74721 4.52041 9.78427 4.67592 9.78427C4.83144 9.78427 4.98471 9.74721 5.12304 9.67615C5.26136 9.60509 5.38076 9.50208 5.47133 9.37567L11.9515 0.390781C12.0715 0.2277 11.9546 0 11.7546 0V0Z" fill="#252627"/>
</svg>
