<svg width="16" height="16" viewBox="0 0 16 16" fill="none" xmlns="http://www.w3.org/2000/svg">
<path fill-rule="evenodd" clip-rule="evenodd" d="M15 8C15 11.866 11.866 15 8 15C4.13401 15 1 11.866 1 8C1 4.13401 4.13401 1 8 1C11.866 1 15 4.13401 15 8ZM16 8C16 12.4183 12.4183 16 8 16C3.58172 16 0 12.4183 0 8C0 3.58172 3.58172 0 8 0C12.4183 0 16 3.58172 16 8ZM7.52478 8.40597C7.34478 8.64005 7.25477 8.92899 7.25477 9.27278C7.25477 9.34593 7.25837 9.41908 7.26557 9.49223C7.27277 9.56538 7.28717 9.64218 7.30878 9.72265H8.50762V9.37153C8.50762 9.17403 8.56162 9.01311 8.66962 8.88875C8.78483 8.75709 8.94683 8.63273 9.15564 8.5157L10.0305 8.04389C10.4409 7.82444 10.7541 7.55379 10.9701 7.23194C11.1861 6.91009 11.2941 6.56629 11.2941 6.20055C11.2941 5.43981 11.0097 4.84365 10.4409 4.41207C9.87927 3.98049 9.09444 3.76471 8.0864 3.76471C7.08557 3.76471 6.28634 4.00244 5.68872 4.4779C5.0983 4.94605 4.77068 5.60073 4.70588 6.44194H6.06673C6.12433 5.97379 6.33314 5.60805 6.69315 5.34471C7.05317 5.07406 7.51758 4.93874 8.0864 4.93874C8.66242 4.93874 9.11244 5.05943 9.43645 5.30082C9.76766 5.54221 9.93327 5.86772 9.93327 6.27735C9.93327 6.48217 9.86487 6.67236 9.72806 6.84791C9.59126 7.01615 9.41125 7.16245 9.18804 7.2868L8.36721 7.73667C7.9856 7.94148 7.70479 8.16458 7.52478 8.40597ZM7.25477 12.0049C7.42038 12.1585 7.62919 12.2353 7.8812 12.2353C8.14041 12.2353 8.34921 12.1585 8.50762 12.0049C8.67322 11.844 8.75603 11.6391 8.75603 11.3904C8.75603 11.1417 8.67322 10.9406 8.50762 10.787C8.34921 10.626 8.14041 10.5456 7.8812 10.5456C7.62919 10.5456 7.42038 10.626 7.25477 10.787C7.08917 10.9406 7.00636 11.1417 7.00636 11.3904C7.00636 11.6391 7.08917 11.844 7.25477 12.0049Z" fill="white"/>
</svg>
